<?xml version="1.0" encoding="utf-8"?>
<!-- Generator: Adobe Illustrator 25.0.0, SVG Export Plug-In . SVG Version: 6.00 Build 0)  -->
<svg version="1.1" id="Layer_1" xmlns="http://www.w3.org/2000/svg" xmlns:xlink="http://www.w3.org/1999/xlink" x="0px" y="0px"
	 viewBox="0 0 1160 966" style="enable-background:new 0 0 1160 966;" xml:space="preserve">
<style type="text/css">
	.st0{fill:url(#SVGID_1_);}
	.st1{fill:url(#SVGID_2_);}
	.st2{fill:url(#SVGID_3_);}
	.st3{fill:url(#SVGID_4_);}
</style>
<g>
	<linearGradient id="SVGID_1_" gradientUnits="userSpaceOnUse" x1="-45.2798" y1="52.1763" x2="1115.9875" y2="1010.2753">
		<stop  offset="0" style="stop-color:#CE00B2"/>
		<stop  offset="1" style="stop-color:#6F00FF"/>
	</linearGradient>
	<path class="st0" d="M445.7,21.8c-3.2,0-6,0.3-8.4,1L295.5,59.3c-9,2-23.7,9.6-23.7,37.8v51.7c0,15.6,3.2,25.8,9.9,32
		c4.6,4.2,10.7,6.2,17.1,5.6l0,0c2.1-0.3,7.5-1.6,34.9-8.5V773c0,13.9,1.4,24.3,4.3,32c6.1,16.3,18.3,18.1,23.2,18.1l82.3,0.1
		c5,0,17.2-1.7,23.5-17.9c3-7.7,4.5-18.2,4.5-32.2v-712c0-10.6-1.4-18.8-4.2-24.9C463,27,455.1,21.8,445.7,21.8z"/>
	<linearGradient id="SVGID_2_" gradientUnits="userSpaceOnUse" x1="72.5533" y1="-90.6437" x2="1233.8207" y2="867.4553">
		<stop  offset="0" style="stop-color:#CE00B2"/>
		<stop  offset="1" style="stop-color:#6F00FF"/>
	</linearGradient>
	<path class="st1" d="M785.4,721.8h-38.2c-5.8,0-10.4-0.7-13.6-2.1l-0.2-0.1c-1.6-0.6-5-2.6-10-8.7c-2.5-3.1-6.1-9.8-8.9-24.3
		c-2.5-12.7-3.7-29.3-3.7-49.3V362.6H772c8.3,0,27.5-3.9,27.5-39.8v-29.1c0-11.2-1.6-19.7-4.9-26.2c-4.6-9-12.9-14.2-22.6-14.2
		h-61.2c0-0.2,0-0.3,0-0.5V43.3c0-11.7-1.5-20.7-4.7-27.4c-4.6-9.6-12.9-15.1-22.8-15.1h-53.9c-9.5,0-17.6,5.5-22.3,15
		c-3.2,6.5-5,15.2-5.7,26.7l-9.7,209.7l0,0.6c0,0.2,0,0.3,0,0.5h-25.3c-9.7,0-18,5.2-22.6,14.2c-3.3,6.5-4.9,15-4.9,26.2v29.1
		c0,35.9,19.2,39.8,27.5,39.8h25.3v273c0,30.7,2.5,57.9,7.3,81c5,23.7,11.4,41.9,19.7,55.6c8.6,14.1,19.7,25.4,33,33.5
		c12.9,7.9,25.6,13,37.8,15.3c11.6,2.2,24.6,3.2,40,3.2h0l54.8-0.1c6.9,0,29.6-2.6,29.6-36.1v-32.3
		C813.9,730.7,799.2,721.8,785.4,721.8z"/>
	<linearGradient id="SVGID_3_" gradientUnits="userSpaceOnUse" x1="114.2282" y1="-141.1559" x2="1275.4956" y2="816.9431">
		<stop  offset="0" style="stop-color:#CE00B2"/>
		<stop  offset="1" style="stop-color:#6F00FF"/>
	</linearGradient>
	<path class="st2" d="M1155.6,266.7c-3.7-8.5-11.1-13.6-19.7-13.6h-45.2c-9,0-17,3.9-22.6,11c-4.8,6.1-7.8,15.1-9.6,28.5
		l-44.8,301.5l-57.4-303.6c-2.2-13.5-5.8-22.4-11.2-28c-5.9-6.1-13.7-9.3-22.4-9.3h-65.2c-8.4,0-15.5,5-19,13.5
		c-2.1,5-3.1,11.5-3.1,19.9c0,3.4,0.4,7.8,1.2,13.8l0.1,0.7l105.7,439.4c9.7,46,10.5,55,10.5,56.7c0,22.6-2.7,39.9-8,51.6
		c-4.4,9.7-8,11.9-8.7,12c-0.6,0-4.8-0.4-19.8-5l-0.1,0c-20.2-6-21-6-23.4-6c-5,0-17.3,1.9-23,19.7c-2.6,8.1-3.9,19.3-3.9,34.2
		c0,17.2,2.1,27,7.1,33.3c13.2,19.1,36.9,28.7,70.4,28.7h5.6l0.2,0c21.2-0.5,38.7-5.5,52-15c13.5-9.5,24.9-26.1,35.1-50.8
		c9.4-22.8,18-55.7,25.6-97.5l95.9-499.2l0.1-0.7c0.8-5.9,1.2-10.6,1.2-14.3C1159.1,279.1,1158,272.1,1155.6,266.7z"/>
	<linearGradient id="SVGID_4_" gradientUnits="userSpaceOnUse" x1="-155.4836" y1="185.7493" x2="1005.7837" y2="1143.8483">
		<stop  offset="0" style="stop-color:#CE00B2"/>
		<stop  offset="1" style="stop-color:#6F00FF"/>
	</linearGradient>
	<path class="st3" d="M174.8,22.7c-3.2,0-6,0.3-8.4,1l-142,36.6c-9,2-23.7,9.6-23.7,37.8v51.7c0,15.6,3.2,25.8,9.9,32
		c4.5,4.1,10.4,6.1,16.7,5.7c0,0,0,0,0,0c0.1,0,0.3,0,0.4,0l0,0c2.1-0.3,7.5-1.6,34.9-8.5V774c0,13.9,1.4,24.3,4.3,32
		c6.1,16.3,18.3,18.1,23.2,18.1h82.4c5,0,17.2-1.7,23.5-17.9c3-7.7,4.5-18.2,4.5-32.2V62c0-10.6-1.4-18.8-4.2-24.9
		C192.1,27.9,184.2,22.7,174.8,22.7z"/>
</g>
</svg>
