<?xml version="1.0" encoding="utf-8"?>
<!-- Generator: Adobe Illustrator 25.0.0, SVG Export Plug-In . SVG Version: 6.00 Build 0)  -->
<svg version="1.1" id="Layer_1" xmlns="http://www.w3.org/2000/svg" xmlns:xlink="http://www.w3.org/1999/xlink" x="0px" y="0px"
	 viewBox="0 0 512 512" style="enable-background:new 0 0 512 512;" xml:space="preserve">
<style type="text/css">
	.st0{fill:#F16529;}
	.st1{fill:#E44D26;}
	.st2{fill:#EBEBEB;}
	.st3{fill:#FFFFFF;}
</style>
<path class="st0" d="M108.4,0h23v22.8h21.2V0h23v69h-23V46h-21v23h-23.2 M206,23h-20.3V0h63.7v23H229v46h-23 M259.5,0h24.1
	l14.8,24.3L313.2,0h24.1v69h-23V34.8l-16.1,24.8l-16.1-24.8V69h-22.6 M348.7,0h23v46.2h32.6V69h-55.6"/>
<path class="st1" d="M107.6,471l-33-370.4h362.8l-33,370.2L255.7,512"/>
<path class="st0" d="M256,480.5V131h148.3L376,447"/>
<path class="st2" d="M142,176.3h114v45.4h-64.2l4.2,46.5h60v45.3H154.4 M156.4,336.3H202l3.2,36.3l50.8,13.6v47.4l-93.2-26"/>
<path class="st3" d="M369.6,176.3H255.8v45.4h109.6 M361.3,268.2H255.8v45.4h56l-5.3,59l-50.7,13.6v47.2l93-25.8"/>
</svg>
