<?xml version="1.0" encoding="utf-8"?>
<!-- Generator: Adobe Illustrator 25.0.0, SVG Export Plug-In . SVG Version: 6.00 Build 0)  -->
<svg version="1.1" id="Layer_1" xmlns="http://www.w3.org/2000/svg" xmlns:xlink="http://www.w3.org/1999/xlink" x="0px" y="0px"
	 viewBox="0 0 256 256" style="enable-background:new 0 0 256 256;" xml:space="preserve">
<style type="text/css">
	.st0{fill:#C0EDF7;}
</style>
<g>
	<g>
		<path class="st0" d="M119.6,0.1c-0.6,0.1-2.3,0.2-3.9,0.4c-36.4,3.3-70.4,22.9-92,53c-12,16.8-19.7,35.8-22.6,55.9
			c-1,7-1.2,9.1-1.2,18.6s0.1,11.6,1.2,18.6c7,48.1,41.2,88.4,87.6,103.4c8.3,2.7,17.1,4.5,27,5.6c3.9,0.4,20.6,0.4,24.5,0
			c17.2-1.9,31.8-6.2,46.1-13.5c2.2-1.1,2.6-1.4,2.3-1.7c-0.2-0.2-9.6-12.7-20.8-27.9l-20.5-27.6l-25.7-38
			C107.6,126.1,96,109,95.9,109c-0.1,0-0.2,16.8-0.3,37.4c-0.1,36.1-0.1,37.5-0.6,38.4c-0.7,1.2-1.2,1.7-2.2,2.3
			c-0.8,0.4-1.5,0.5-5.3,0.5h-4.3l-1.2-0.7c-0.8-0.5-1.3-1.1-1.7-1.8l-0.5-1.1l0.1-50.2l0.1-50.2l0.8-1c0.4-0.5,1.3-1.2,1.9-1.5
			c1-0.5,1.4-0.6,5.8-0.6c5.1,0,6,0.2,7.3,1.7c0.4,0.4,14.3,21.3,30.9,46.5s39.3,59.6,50.5,76.5l20.3,30.7l1-0.7
			c9.1-5.9,18.7-14.3,26.3-23.1c16.2-18.6,26.6-41.3,30.1-65.4c1-7,1.2-9.1,1.2-18.6s-0.1-11.6-1.2-18.6
			c-7-48.1-41.2-88.4-87.6-103.4c-8.2-2.7-16.9-4.5-26.7-5.6C138.2,0.1,121.7-0.1,119.6,0.1L119.6,0.1z M172,77.5
			c1.2,0.6,2.2,1.8,2.5,3c0.2,0.7,0.3,14.6,0.2,45.9l-0.1,45l-7.9-12.2l-8-12.2v-32.7c0-21.1,0.1-33,0.3-33.6
			c0.4-1.4,1.3-2.5,2.5-3.2c1-0.5,1.4-0.6,5.3-0.6C170.5,77,171.2,77,172,77.5z"/>
	</g>
</g>
</svg>
