<?xml version="1.0" standalone="no"?>
<!DOCTYPE svg PUBLIC "-//W3C//DTD SVG 20010904//EN"
 "http://www.w3.org/TR/2001/REC-SVG-20010904/DTD/svg10.dtd">
<svg version="1.0" xmlns="http://www.w3.org/2000/svg"
 width="700.000000pt" height="700.000000pt" viewBox="0 0 700.000000 700.000000"
 preserveAspectRatio="xMidYMid meet">
<metadata>
Created by potrace 1.11, written by Peter Selinger 2001-2013
</metadata>
<g transform="translate(0.000000,700.000000) scale(0.100000,-0.100000)"
fill="#000000" stroke="none">
<path d="M1807 5404 c-1 -1 -31 -4 -67 -8 -36 -4 -85 -9 -109 -11 -113 -13
-357 -85 -489 -146 -35 -16 -65 -29 -67 -29 -6 0 -151 -83 -205 -118 -214
-139 -415 -341 -562 -567 -149 -229 -237 -466 -294 -795 -10 -62 -12 -362 -2
-450 47 -425 235 -821 535 -1125 106 -108 125 -124 245 -213 277 -204 585
-323 948 -368 30 -4 364 -8 743 -8 l687 -2 1 31 c1 36 1 1853 0 1877 -1 12 -8
16 -23 13 -13 -2 -47 -6 -76 -9 -216 -24 -425 -187 -516 -403 -46 -109 -49
-140 -52 -493 -1 -184 -2 -338 -3 -341 -1 -4 -164 -5 -363 -4 -294 2 -379 5
-446 19 -393 80 -713 322 -887 671 -48 96 -95 227 -110 305 -27 140 -27 388
-1 505 69 301 223 546 461 730 130 100 230 154 385 205 164 56 230 62 645 65
456 3 478 6 619 75 205 101 365 342 366 551 l0 45 -681 0 c-374 0 -681 -1
-682 -2z"/>
<path d="M4397 5399 c-255 -38 -477 -236 -545 -484 -20 -75 -29 -174 -15 -176
4 0 316 -2 693 -3 606 -2 695 -5 774 -20 381 -75 700 -310 880 -647 49 -92 98
-224 115 -309 6 -30 13 -68 17 -85 14 -65 12 -310 -3 -390 -53 -284 -156 -480
-357 -681 -201 -200 -462 -327 -741 -361 -33 -4 -358 -8 -722 -8 l-663 0 -1
-40 c0 -50 0 -1796 0 -1848 l1 -38 53 5 c294 33 514 220 594 505 12 44 16 125
18 391 2 184 4 340 4 345 1 6 121 10 339 10 379 0 467 6 632 41 589 126 1071
502 1335 1040 190 386 241 835 145 1269 -16 73 -61 219 -71 230 -5 5 -9 16 -9
25 0 27 -125 269 -185 360 -140 210 -326 398 -534 540 -235 159 -547 280 -811
314 -19 3 -57 8 -85 12 -66 10 -796 12 -858 3z"/>
</g>
</svg>
