<svg id="Layer_1" data-name="Layer 1" xmlns="http://www.w3.org/2000/svg" viewBox="0 0 47.29 34.46"><defs><style>.cls-1{fill:#fff;}.cls-2{fill:#e87024;}</style></defs><path class="cls-1" d="M25.66,33.81h0V21.36h8a8.25,8.25,0,0,0,8.3-7.9,8.14,8.14,0,0,0-8-8.3H25.66A4.32,4.32,0,0,1,29.94.87h3.62a12.46,12.46,0,1,1,.82,24.91H29.94v3.74A4.31,4.31,0,0,1,25.66,33.81Z"/><path class="cls-2" d="M37.38,8.83A22.1,22.1,0,0,0,34.64,10a.13.13,0,0,0-.07-.11c-.83-.43-1.74-.69-2.57-1.12a10.51,10.51,0,0,1-2.24-1.57,7,7,0,0,1-1.51-2.07,7.34,7.34,0,0,1-.56-2.78c.25-.55.49-1.11.72-1.67a0,0,0,0,0-.09,0c-.33.57-.63,1.16-.91,1.77a.14.14,0,0,0-.18,0,24.55,24.55,0,0,1-2.41,2.14A9.44,9.44,0,0,1,22.11,5.9a7.57,7.57,0,0,1-2.92.25,7.57,7.57,0,0,1-2.71-.92,24.08,24.08,0,0,1-.7-4c0-.09-.15-.1-.15,0A18.28,18.28,0,0,0,16.12,5h0c-.08,0-.14.1-.08.16-.27.9-.48,1.8-.8,2.69a20.59,20.59,0,0,1-1.33,2.86,31.87,31.87,0,0,1-3.5,4.68c-1.36-.54-2.72-1.1-4.1-1.55-.06,0-.09.07,0,.09A33.55,33.55,0,0,0,10,15.63c.21.76.5,1.48.66,2.26a12.8,12.8,0,0,1,.22,2.55,17.37,17.37,0,0,1-1,4.79c-1,.33-1.95.61-2.88,1a.07.07,0,0,0,0,.12,12.17,12.17,0,0,0,3.06-.88s0,0,0,0a9.2,9.2,0,0,1,1.57.37,4.22,4.22,0,0,1,1.38,1.06,11.13,11.13,0,0,1,1.54,3.2s0,0,0,0c-.71.72-1.45,1.42-2.24,2.08-.08.07,0,.21.11.14A17.52,17.52,0,0,0,15,30.26a10.31,10.31,0,0,1,5.07-.56,10.91,10.91,0,0,1,2.31.6,23.23,23.23,0,0,1,2.28,1.16c.09.62.17,1.24.27,1.86,0,.1.18.08.17,0,0-.54-.09-1.09-.14-1.63a.15.15,0,0,0,.08-.12c.2-1.55,2-2.17,3.34-2.55A15.31,15.31,0,0,1,32,28.53C33,30,33.84,31.48,34.67,33c0,.07.17,0,.14-.06a24.4,24.4,0,0,0-2.38-4.45l0-.05c.08-.61,0-1.24.11-1.86a8.82,8.82,0,0,1,.5-2A9.38,9.38,0,0,1,34,22.86a13.25,13.25,0,0,1,1-1.18c.35.18.7.36,1.07.53a.12.12,0,0,0,.12-.2,7.52,7.52,0,0,0-.75-.5v0a23.59,23.59,0,0,1-1.29-5.6,21.82,21.82,0,0,1-.06-2.8c0-.84.18-1.68.23-2.53,1-.55,2.11-1.07,3.18-1.59C37.5,8.92,37.45,8.8,37.38,8.83ZM22,6.29A10.3,10.3,0,0,0,27.16,3c-.47,1.1-.89,2.23-1.29,3.34a.11.11,0,0,0-.08,0,10.93,10.93,0,0,1-3.95,2,11.16,11.16,0,0,1-2.37.31c-.62,0-1.27-.08-1.89,0l0-.07c-.36-.95-.69-1.91-1-2.88A7,7,0,0,0,22,6.29Zm9,10a9.72,9.72,0,0,0,1.42,4L31,19.82c-.41-.11-.81-.21-1.23-.3A12.87,12.87,0,0,1,29,18.26a6,6,0,0,1-.43-1.72A7.24,7.24,0,0,1,29,13.68c.51-.35,1-.69,1.54-1l.67-.42A8.68,8.68,0,0,0,31,16.25Zm-.53,9.62h0c-.3-.37-.61-.74-.93-1.1s-.76-.83-1.16-1.23c0-.27-.07-.53-.07-.8a3.86,3.86,0,0,1,.22-1.21,4.67,4.67,0,0,1,1.22-1.69h0a24.75,24.75,0,0,1,2.68.75,4.72,4.72,0,0,0-1.6,2.31A4.93,4.93,0,0,0,30.49,25.87Zm-16.86-6.1a7.21,7.21,0,0,0-1.19-3.24c.78.27,1.58.53,2.37.76a.09.09,0,0,0,.08,0,.06.06,0,0,0,0,0c.15.33.44.56.61.88a3.66,3.66,0,0,1,.4,1.33,14.58,14.58,0,0,1-.19,2.87q-.76.45-1.56.87c-.35.19-.7.37-1.06.54H13A7,7,0,0,0,13.63,19.77Zm14.65-3.06a5.76,5.76,0,0,0,1,2.71c-.67-.14-1.34-.26-2-.36a5,5,0,0,1-.7-2,5.42,5.42,0,0,1,.39-1.95L28.59,14A5.7,5.7,0,0,0,28.28,16.71Zm-1.71,5.11-.57-.5-1.09-.9a1.56,1.56,0,0,1,.46-1.31c.57.07,1.14.15,1.7.24A3.15,3.15,0,0,0,26.57,21.82ZM16.21,19.24a3.41,3.41,0,0,0-.78-1.77q.88.26,1.8.45a14.88,14.88,0,0,1,.31,1.77,11.15,11.15,0,0,1-.24,1.81c-.44.28-.89.55-1.34.81A6.82,6.82,0,0,0,16.21,19.24ZM26.77,19l-1.12-.15a.13.13,0,0,0,0-.13,9,9,0,0,0-.26-1,3.68,3.68,0,0,1,.07-1.4.22.22,0,0,0,0-.08l1.07-.76A3.89,3.89,0,0,0,26.77,19ZM24.63,20.2a15.62,15.62,0,0,0-2.13-1.44l2.48.3A1.55,1.55,0,0,0,24.63,20.2ZM17.46,18l.28.07.89.17a3,3,0,0,1,.23,1.15,3.06,3.06,0,0,1-.24,1.25h0a5,5,0,0,1-.9.6c.05-.27.08-.56.1-.71A4.59,4.59,0,0,0,17.46,18Zm4.13.37c-.86-.11-1.72-.24-2.58-.38a2.92,2.92,0,0,0,1.61-1.85C21,16.84,21.28,17.59,21.59,18.34Zm-.9-2.85A3.2,3.2,0,0,0,23,14.78c-.38,1.1-.77,2.2-1.19,3.29C21.48,17.2,21.09,16.35,20.69,15.49Zm.88,3.16c-.83.58-1.65,1.15-2.49,1.7a2.53,2.53,0,0,0-.16-2.09C19.8,18.41,20.68,18.54,21.57,18.65Zm-.12.42c-.36.9-.74,1.79-1.16,2.66a2.31,2.31,0,0,0-.33-.58,1.78,1.78,0,0,0-.69-.58C20,20.08,20.73,19.58,21.45,19.07Zm.36-.19.21.55c.28.73.52,1.47.75,2.21a2.29,2.29,0,0,0-2.18.07C21,20.78,21.43,19.83,21.81,18.88Zm.21-.55c.45-1.17.87-2.34,1.27-3.52a2.4,2.4,0,0,0,1.83,1.3Zm1.15-3.95,0,0a5.72,5.72,0,0,1-1.32.63,6.26,6.26,0,0,1-1.29.12c-.28-.61-.57-1.22-.86-1.83a.25.25,0,0,1,0-.08,2.73,2.73,0,0,0,2.2.53A3.32,3.32,0,0,0,23.63,13C23.48,13.45,23.32,13.91,23.17,14.38Zm-3.5-.3.67,1.44a2.29,2.29,0,0,1-.85,1.78c-.2.15-.68.27-.86.51l0,0c-.06-.06-.14,0-.12.08l-.94-.2A5.48,5.48,0,0,0,19.67,14.08Zm-.58,6.62a3.13,3.13,0,0,1,.67.64,1.89,1.89,0,0,1,.25.49,1.69,1.69,0,0,0,.11.27c-.22.46-.45.91-.68,1.35A2.5,2.5,0,0,0,18.73,22a1.91,1.91,0,0,0-.85-.51Zm1.31,1.43c0-.06.05-.11.07-.17a5.06,5.06,0,0,1,1.21-.28,2.12,2.12,0,0,1,1.23.46c.14.5.28,1,.4,1.52a3.18,3.18,0,0,0-3.6-.15Q20.07,22.82,20.4,22.13Zm2.36-1.65c-.18-.55-.39-1.09-.6-1.62.75.58,1.54,1.11,2.3,1.67a2.29,2.29,0,0,0-.89.39,2.37,2.37,0,0,0-.5.5C23,21.11,22.87,20.79,22.76,20.48Zm-.41-2.05,2.7-1.94a2.36,2.36,0,0,0,.4,2.19h0a.91.91,0,0,0-.17.09Zm3.29-2.7-.37.27h0c-.35-.25-.78-.36-1.12-.65a10.27,10.27,0,0,1-.75-.88L23.9,13c.31,1.1,1.37,2.58,2.45,2.25ZM23.82,12.4a.2.2,0,0,0-.09,0,3.39,3.39,0,0,1-1.91,1,5.85,5.85,0,0,1-2.16-.37.06.06,0,0,0-.08.06c-.31-.65-.61-1.3-.91-2a6.49,6.49,0,0,0,3,.08,7.65,7.65,0,0,0,1.73-.52A4.33,4.33,0,0,0,24.6,10Zm-4.55.84.11.23a8,8,0,0,1-.61,2.23,8.88,8.88,0,0,1-1.48,1.91c-.66-.15-1.32-.31-2-.5a6.44,6.44,0,0,0,2.29-2.62,7.35,7.35,0,0,0,.68-1.87,5.46,5.46,0,0,0,.18-1.12C18.73,12.08,19,12.66,19.27,13.24ZM17.09,22l.06,0a.35.35,0,0,0,.3-.08s0,0,0,0c.38-.5,1.27.54,1.41.81a2,2,0,0,1,.25.7,1.69,1.69,0,0,0,.07.45c-.33.6-.68,1.21-1,1.79a4.13,4.13,0,0,0-.82-2.32,2.86,2.86,0,0,0-1-.9C16.6,22.28,16.85,22.13,17.09,22Zm2.43,1.9a3.35,3.35,0,0,1,1.77-.57,3.11,3.11,0,0,1,1.13.22,2.32,2.32,0,0,1,1,.65c.13.55.24,1.11.35,1.67,0,.13,0,.27.07.4a4.26,4.26,0,0,0-5.32-.35,1.22,1.22,0,0,0-.24.1C18.73,25.29,19.14,24.58,19.52,23.87Zm4.17-.2c-.16-.64-.33-1.28-.52-1.92a2.24,2.24,0,0,1,.55-.6,2.12,2.12,0,0,1,1.08-.37l0,0,0,0q.43.32.84.66l.58.5a3.48,3.48,0,0,0-1.8.65A2.1,2.1,0,0,0,23.69,23.67Zm3.24-8.85h0a.11.11,0,0,0-.16-.07c-1.43.78-2.31-1.09-2.72-2.17.25-.79.51-1.58.77-2.37a4.56,4.56,0,0,0,1.5,2.2,5.36,5.36,0,0,0,1.38.87,3.53,3.53,0,0,0,1,.33C28.1,14,27.51,14.41,26.93,14.82ZM24.72,9.67h0a9.52,9.52,0,0,0-1.34.7,7.45,7.45,0,0,1-1.73.56,9.77,9.77,0,0,1-3.1,0c-.3-.68-.59-1.36-.86-2A6.37,6.37,0,0,0,19.47,9a10.7,10.7,0,0,0,2.46-.32,9.47,9.47,0,0,0,3.76-1.82c-.05.16-.11.32-.16.47C25.25,8.1,25,8.89,24.72,9.67Zm-6.55,1.18c-.06,0-.08.1,0,.13l.05,0A9.74,9.74,0,0,0,18,12.53a7.35,7.35,0,0,1-.68,1.87A9.56,9.56,0,0,1,15,17c-.72-.21-1.43-.43-2.14-.68l-.72-.25c1.4-.1,2.62-1.8,3.36-2.79A11.11,11.11,0,0,0,16.85,11a6.15,6.15,0,0,0,.53-2C17.63,9.59,17.9,10.22,18.17,10.85ZM15.89,22.69c.68-.05,1.31.92,1.58,1.42A4.64,4.64,0,0,1,18,26l-.46.71c-.2.29-.4.57-.61.85A6,6,0,0,0,15.46,25a3.8,3.8,0,0,0-1.79-1.12C14.42,23.52,15.16,23.12,15.89,22.69Zm2,3.95s.05,0,.06-.08a.83.83,0,0,1,.08-.12l0,0s0,0,.05,0l.17-.1a.1.1,0,0,0,.12,0A8.63,8.63,0,0,1,20,25.6a4.2,4.2,0,0,1,1.73-.06A5.3,5.3,0,0,1,24,26.76c.1.6.2,1.2.29,1.81A5.81,5.81,0,0,0,20.94,27a6.29,6.29,0,0,0-2.12.07,4.84,4.84,0,0,0-1.65.57C17.41,27.33,17.65,27,17.87,26.64Zm5.94-2.43,0,0c.12-.21.16-.46.28-.68a2.09,2.09,0,0,1,.79-.77,6.18,6.18,0,0,1,1.62-.49c.51.45,1,.92,1.48,1.4a3.65,3.65,0,0,0-2.39.88,3.92,3.92,0,0,0-1.36,2C24.14,25.73,24,25,23.81,24.21ZM28,23.14c-.34-.34-.69-.67-1.05-1v0a.08.08,0,0,0,0-.13,6,6,0,0,1,0-1.41,6.74,6.74,0,0,1,.36-1.1c.06,0,.1,0,.12-.09.7.11,1.39.24,2.08.38a3.5,3.5,0,0,0-1.2,1.59A4,4,0,0,0,28,23.14Zm1.14-9.82a.11.11,0,0,0-.16,0c-.34-.17-.78-.21-1.13-.35a4.92,4.92,0,0,1-1.35-.86,6.89,6.89,0,0,1-1.56-2.26c.13-.41.27-.82.4-1.22.21-.63.43-1.25.64-1.87a6.41,6.41,0,0,0,1.88,3.16,7.25,7.25,0,0,0,3.55,1.95l0,0C30.6,12.36,29.85,12.83,29.12,13.32ZM14.18,10.91a17.82,17.82,0,0,0,2.09-5.29,28.48,28.48,0,0,0,.92,2.84.34.34,0,0,0-.06.06,6.71,6.71,0,0,0-.23,1.1,10.16,10.16,0,0,1-.33,1.07,10.4,10.4,0,0,1-1.14,2.13c-.89,1.29-2.1,2.82-3.73,3.09h0L10.6,15.5A16,16,0,0,0,14.18,10.91Zm-4,14.23a10.21,10.21,0,0,0,1.09-4.7,10.9,10.9,0,0,0-.79-4.64l1.27.48.27.09a10.23,10.23,0,0,1,.76,1.42,8.08,8.08,0,0,1,.54,2.15A9,9,0,0,1,12.61,24a.11.11,0,0,0,0,.1c-.66.31-1.33.61-2,.88ZM14.83,30h0l0,0a6.17,6.17,0,0,0-1.49-3.4,4.14,4.14,0,0,0-2.46-1.39c.79-.32,1.56-.66,2.32-1a3.87,3.87,0,0,1,2.31,1.37,8.25,8.25,0,0,1,.78,1.23,8.89,8.89,0,0,0,.5,1A25.74,25.74,0,0,1,14.83,30Zm5.23-.59a10.44,10.44,0,0,0-4.58.37c.49-.54.95-1.1,1.39-1.68a.12.12,0,0,0,.1,0c.63-.15,1.2-.5,1.84-.64a6.06,6.06,0,0,1,2.08-.08,7.08,7.08,0,0,1,3.4,1.56c.11.75.22,1.51.32,2.27A8.66,8.66,0,0,0,20.06,29.38Zm4.55-.7-.24-1.63.05,0c.2-.35.28-.74.47-1.1a4,4,0,0,1,.84-1.05A3.93,3.93,0,0,1,27,24.11c.39-.13.8-.17,1.2-.28,0,0,0,0,0,0l.06,0c.3.31.6.64.9,1s.58.66.85,1a9,9,0,0,0-1.48.24,7.35,7.35,0,0,0-2,.73A4.84,4.84,0,0,0,24.61,28.68Zm3,.23c-.89.33-2.3.89-2.72,1.87-.05-.47-.1-.94-.16-1.41a9.25,9.25,0,0,1,.77-1.26,4.84,4.84,0,0,1,1.4-1.06,8.09,8.09,0,0,1,2-.66c.45-.1.93-.15,1.39-.27.56.7,1.08,1.42,1.58,2.15A9.56,9.56,0,0,0,27.58,28.91Zm5.24-4.53a8.88,8.88,0,0,0-.58,2.15,6.24,6.24,0,0,0-.09,1.56c-.47-.69-1-1.35-1.49-2a.08.08,0,0,0,.05-.05c.08-.43,0-.87.06-1.31a6.41,6.41,0,0,1,.35-1.56,6.22,6.22,0,0,1,.73-1.43c.24-.37.61-.68.81-1.07l.21.07a18.77,18.77,0,0,1,1.77.8A8,8,0,0,0,32.82,24.38Zm1-8.3A18.42,18.42,0,0,0,35,21.26h0a14.33,14.33,0,0,0-2.05-.87,12.3,12.3,0,0,1-1.56-4.14A11.4,11.4,0,0,1,31.27,14c.05-.66.22-1.3.31-2,.8-.48,1.61-.94,2.44-1.38A15,15,0,0,0,33.78,16.08Zm.45-5.84s-.08,0-.09,0h0c-.84.45-1.66.93-2.46,1.42a.14.14,0,0,0-.11-.11,7.69,7.69,0,0,1-3.49-1.91,10.42,10.42,0,0,1-2-3.18l.66-1.79c.22-.57.46-1.14.7-1.7a6.19,6.19,0,0,0,1.83,4.21A10,10,0,0,0,31.64,9a10.85,10.85,0,0,0,2.72,1.15Z"/><path class="cls-1" d="M21.37,25.67h-8A12.45,12.45,0,0,1,13.24.77H21.4a4.3,4.3,0,0,1-4.28,4.28H13.34A8.27,8.27,0,0,0,5,13a8.14,8.14,0,0,0,8,8.3H17V17.48a4.31,4.31,0,0,1,4.28-4.29h0V25.67Z"/></svg>