<svg xmlns="http://www.w3.org/2000/svg" xmlns:xlink="http://www.w3.org/1999/xlink" viewBox="0 0 54.31 35.14"><defs><style>.cls-1{fill:#fff;}.cls-2{fill:#d0d0d0;}.cls-3,.cls-4,.cls-5{fill-rule:evenodd;}.cls-3{fill:url(#linear-gradient);}.cls-4{fill:url(#linear-gradient-2);}.cls-5{fill:url(#linear-gradient-3);}</style><linearGradient id="linear-gradient" x1="58.19" y1="829.95" x2="58.33" y2="829.74" gradientTransform="matrix(-73.34, 28.36, -25.77, -66.65, 25668.58, 53668.23)" gradientUnits="userSpaceOnUse"><stop offset="0" stop-color="#ff1010"/><stop offset="1"/></linearGradient><linearGradient id="linear-gradient-2" x1="58.17" y1="828.45" x2="58.33" y2="828.27" gradientTransform="translate(44624.12 100495.67) rotate(158.86) scale(92.35 132.57)" xlink:href="#linear-gradient"/><linearGradient id="linear-gradient-3" x1="58.15" y1="829.04" x2="58.38" y2="828.74" gradientTransform="matrix(-84.79, 32.78, -35.06, -90.68, 34003.65, 73265.78)" xlink:href="#linear-gradient"/></defs><g id="Layer_2" data-name="Layer 2"><g id="Layer_1-2" data-name="Layer 1"><path class="cls-1" d="M29.54,27h-8a12.45,12.45,0,1,1-.13-24.9h8.16a4.3,4.3,0,0,1-4.28,4.28H21.51a8.27,8.27,0,0,0-8.3,7.9,8.14,8.14,0,0,0,8.17,8.3h3.75V18.81a4.31,4.31,0,0,1,4.28-4.29h0V27Z"/><path class="cls-1" d="M33.83,35.14h0V22.69h8a8.26,8.26,0,0,0,8.3-7.9A8.14,8.14,0,0,0,42,6.49H33.83A4.32,4.32,0,0,1,38.11,2.2h3.62a12.46,12.46,0,1,1,.13,24.91H38.11v3.74A4.31,4.31,0,0,1,33.83,35.14Z"/><g id="layer1"><path id="path2248" class="cls-2" d="M6.86,19.58l-.39-.35.25.54-.55-.31.33.44L6,19.72l.45.41-.61-.05.06,0H5.8l.42.21-.45,0,.14,0-.17,0,.61.17-.59.21h.5l-.43.25L6.34,21l-.44.37.56-.19-.38.45.6-.33-.28.6h0l.41-.37L6.69,22l0,0,0,.07.42-.55v.64l.21-.5.1.49.1-.41.16.4,0-.52L8,22l-.11-.65.51.45v0h0l-.21-.45.47.26,0,0,0,0-.37-.51.65.17-.46-.35.58.05-.44-.23.46,0-.49-.14.51-.15-.63-.06.6-.33L9,20,9,20l-.5.07L9,19.71h0l-.17.05-.43.14.39-.53-.49.31.25-.52L8,19.59l.15-.54-.32.41,0-.49-.27.53-.11-.57,0,.13,0-.13-.08.4-.17-.39v.14l0-.1v.57l-.36-.45Z"/><path id="path1321" class="cls-3" d="M10.27,1.77A11.74,11.74,0,0,1,8.13,4.42,6.39,6.39,0,0,0,6.74,5.77a2.24,2.24,0,0,0-.24,1,15.27,15.27,0,0,0,.18,2.34,26.12,26.12,0,0,0,.52,4c0,.18.39-.18.61-.27a9.49,9.49,0,0,0,1.56-.86,21.11,21.11,0,0,0,2.12-1.68,14.27,14.27,0,0,0,1.09-1.11c.48-.54.89-1.14,1.33-1.71a13.71,13.71,0,0,0,.92-1.57,7.09,7.09,0,0,0,.53-1.27,6,6,0,0,0,.36-1.38c0-.25,0-.6-.22-.71-.45-.27-1.16-.22-1.69-.52s-1-.6-1.47-.93S11,.05,11,.43,10.54,1.34,10.27,1.77Z"/><path id="path3861" class="cls-2" d="M15.51,1.75c-.12-.09-.5-.54-.3-.18s.3.53,0,.24-.32-.19-.09.1-.22,0-.37,0c.08.13.55.45.34.43s-.56-.11-.44,0c.3.15.41.25,0,.22,0,0-.16.06.15.15s.33.16,0,.24.36,0,.22.14-.44.25,0,.16c.26,0,0,0-.11.22-.18-.19-.13.15-.06.1.08.21.3.51,0,.26s-.42-.28-.15,0-.13.07-.31,0,.47.4.34.41-.62-.12-.48,0c.3.15.42.25,0,.22,0,0-.17.06.07.12s.56.16.13.24,0,.11.2.13a.79.79,0,0,1-.37.18c0,.07.14.45.08.41S13.81,5,14,5.41s.22.45-.1.18-.22-.09,0,.16-.38-.13-.37,0,.59.46.28.39-.58-.11-.37,0,.29.22-.07.2c.15.07-.18.06.19.15s.08.27,0,.06c0,.09,0,.09-.21.23.13-.13.27.42,0,.13s-.16-.13-.07.16-.46-.47-.32-.19.36.63,0,.34-.41-.28-.14.05-.13.07-.31,0,.47.4.34.42-.53-.1-.52,0c.24.12.53.27.09.23-.08,0-.19.06.07.14.43,0,0,.36,0,.09,0,.11,0,.08-.15.23.24,0,.05.38.1.33s-.39-.61-.29-.3.07.37-.17.09.09.29.13.42-.48-.33-.48-.27.48.56.1.34-.2,0,0,.19-.24.05-.4.06.37.21.27.25c-.35,0-.3.05-.32.1.13.08.73.16.35.24-.05,0-.41.13-.26.14s-.16.58-.12.1-.1-.28-.14-.29c0,.38-.09.37-.19,0,0,0-.1-.06-.07.27s-.11.12-.25-.08.06.31,0,.36c-.13-.12-.5-.55-.27-.15s.19.42-.13.16-.12,0,0,.21-.5-.21-.36-.05.59.47.21.37c-.22,0-.55-.1-.29,0,.44.09-.09.33-.09,0,0,0-.07-.11-.09.06,0,.46-.12.09-.21-.13a.82.82,0,0,0,0,.46c0,.36-.23-.21-.33-.29s.25.67,0,.34-.26-.21-.09.11-.13,0-.29,0,.13.26.19.37c-.12,0-.66-.33-.38-.09s.51.43.07.3c-.14,0-.46-.09-.23,0,.41.14-.19.34-.11,0,0,0-.06-.07-.08,0,0,.42-.1.23-.2-.06,0,.07-.08,0,0,.39s-.19-.12-.3-.22.21.58,0,.36-.41-.42-.18,0,0,.23-.23.06.07.19.14.32-.65-.32-.36-.06.52.42.08.29c-.26,0-.45-.06-.15.09.47.18-.2.1-.16.16s.1.11.36.19-.27.16-.39.24c.22,0,.66,0,.24.17s.26,0,.29.07-.59.45-.19.27.21.27,0,.23c0,.06.06.09.29.21s-.48,0-.28.11c-.15,0,.45.15.48.22s-.73.19-.36.19.21.11-.06.25c0,.06.68-.16.31.08s-.24.26.1.12-.21.35-.15.38.59-.43.47-.17-.32.66,0,.31.19-.05.12.21.19-.2.29-.33.05.38.09.52.17-.67.21-.33.11.45.14,0c0-.21.23.65.18.17s0-.38.19-.05,0-.2,0-.35c-.1-.34.26.17.38.24s-.12-.31-.14-.41.55.41.39.19-.49-.56-.15-.4.63.25.25,0-.11-.2.18-.14.21-.31.38-.44.05.38.09.52.17-.67.2-.34.11.47.14,0c0-.22.23.64.18.15s0-.38.19-.05,0-.2,0-.35c-.1-.34.26.17.38.24s-.11-.31-.14-.41.56.41.39.19-.49-.56-.15-.4.63.25.25,0-.11-.2.19-.15-.52-.26-.2-.24.25,0,0-.15c.19-.38.27.36.28-.11,0-.24.06-.15.18.14s-.06-.62.07-.39.33.6.2.16c-.06-.26-.15-.58.13-.23s.34.32.14,0,.22.05.36.11a5.9,5.9,0,0,0-.37-.55c.16,0,.57.22.57.16s-.6-.42-.17-.3.18,0,.05-.18c.17-.11.29.16.22-.1-.08-.43.18-.12.27.09a3.54,3.54,0,0,0-.11-.62c.16.14.36.36.48.45,0-.13-.35-.6-.1-.41s.47.32.19,0-.29-.4.08-.22.22,0,0-.17.33,0,.4,0c-.19-.12-.59-.29-.14-.26s-.39-.13,0-.25c.13.27.15,0,.11-.06-.06-.42.08-.18.22.06s0-.3,0-.43.29.24.42.31-.19-.39-.16-.43.58.43.36.15c-.07-.15-.48-.55-.1-.36s.55.21.19-.06,0-.15.25-.11-.62-.29-.2-.25-.08-.06.1-.26c.31,0,.23.14.17-.26s0-.24.24,0,.15.07,0-.16.26.1.38.14c0-.1-.26-.38-.37-.55.15,0,.59.24.55.16s-.58-.42-.15-.3.23,0,0-.17.52.07.3-.19c.06-.19,0-.44.14-.08s0-.21.07-.36c.08.09.34.64.27.34,0-.15-.23-.72,0-.41.1.07.48.53.31.21s-.2-.44.11-.18,0-.13-.09-.27c-.28-.31.23,0,.39,0s-.36-.3-.29-.34.72.15.32,0,0-.15.18-.17c-.18-.08-.66-.17-.21-.22s-.06-.1-.25-.14.32-.22.42-.33-.33,0-.44,0c.12-.33.48,0,.29-.25,0,0-.33-.52,0-.24s.38.24.13-.06-.19-.33.14-.18.1,0-.09-.21.51.06.41,0-.51-.27-.06-.24-.55-.19-.24-.16c-.07,0,.61-.15.19-.16s-.35-.33,0-.1-.26-.28.16-.28c0,0-.42.07-.29-.15.18,0,.65.27.29,0-.13-.15-.38-.25,0-.19s.23,0,0-.17.67,0,.16-.14-.07-.14.17-.21c0-.06-.6,0-.5-.13s.52-.27.44-.31-.66.06-.24-.06c0-.15.3-.28-.11-.13s0-.2.08-.16c-.45,0,.21-.34-.07-.29s-.11-.37-.36-.06c-.24,0,.32-.22.43-.33s-.51.08-.44,0,.5-.39.12-.22-.46.13-.19-.17,0-.12-.23,0,.24-.54.1-.44-.46.57-.33.16,0-.35-.14,0,0-.59-.1-.31-.21.64-.24.19-.09-.31-.13-.29c0,.38-.09.37-.19,0,0,0-.1-.09-.07.16s-.26.28-.16,0c0,.14-.24-.14-.16,0,.1.38-.21.21-.1-.09,0,.12-.22.13-.15.3-.11.4-.13-.18-.19-.33,0,0-.07-.14-.09.1,0,.47-.14-.07-.21-.16s0,.21,0,.49-.24-.28-.35-.37Zm-1.17,3.4c.41-.13,0,.41-.08,0ZM18,6.21c.09.21-.44.09-.16-.16Zm-6.34,3.7c.36-.07-.15.29,0,0Zm5-1.48h0c.38,0-.08.36-.07,0Zm-.89,1.18c.3.31-.21.2,0-.09ZM7.54,14.42c0,.22-.51,0-.06-.06Zm2.56.83c.12.35-.37.13-.22,0,.4,0-.09-.09.28-.27Z"/><path id="path2310" class="cls-1" d="M15.32,2.08c.14.34-.29-.22-.31-.15s.36.6.08.38-.45-.29-.17,0-.13.07-.3,0,.44.35.31.37-.49-.07-.48,0c.24.12.48.23.07.21-.1,0-.16.07.13.15s.17.14-.1.22.33,0,.27.09c-.21.12-.49.26-.08.17s0,0,0,.17c-.17-.07-.19.1-.09.11.07.18.28.45,0,.23s-.38-.22-.12.07-.21,0-.35,0c.07.11.51.39.31.38s-.52-.08-.42,0c.28.13.39.22,0,.2,0,0-.15.06.17.14s.17.14-.09.22.43,0,.23.11-.39,0-.24.32,0,.17-.19,0,.08.25.11.37-.48-.32-.43-.21.41.47,0,.27-.1,0,.07.2-.3,0-.43,0,.37.19.27.23c-.35,0-.19.06-.35.08.11.06.65.11.37.23-.13-.15-.07,0-.12-.08,0,.13-.37.21,0,.25,0,.35-.26-.12-.32-.16,0,.18.22.6-.05.28s-.1,0,0,.22S12.72,7,12.6,7c.05.12.46.51.15.35s-.32-.1-.06.12-.12.1-.31.1.11.11.27.21c-.29,0-.35,0-.37.08s.62.12.25.26c-.13-.19-.06,0-.14-.1-.1.29,0,.08,0,.39s-.05.07-.22-.15,0,.17,0,.3c-.14-.11-.48-.49-.27-.12s.12.32-.15.12,0,.11.08.26-.59-.27-.34-.06.48.39.08.28c-.24,0-.44-.05-.15.08.45.15-.2.09-.15.15s0,.06.23.13c.43.06,0,.16,0,.15-.37.17,0,0-.14.28s-.1-.19-.16-.31-.08-.08-.12.23c-.05.09-.17-.42-.19-.23-.06,0,.07.62-.07.42s-.35-.54-.21-.13-.15,0-.29-.1c0,.12.32.54.15.45s-.56-.4-.28-.08.08.22-.18.1.24.26.31.36c-.17,0-.51-.09-.53-.05s.5.26.05.22c-.1-.23-.07,0-.13-.17,0,.32-.08.42-.18.06-.06-.07-.09,0-.07.31s-.19-.12-.3-.22.22.61-.05.29-.19-.12-.06.14-.21,0-.34-.1.37.44.15.34-.5-.21-.17,0,.17.22-.11.16-.27,0,0,.13c-.18.36-.28-.27-.28-.1-.06-.27-.06.43-.14.2S8,11.48,8,11.65s0,.54-.17.17-.11,0-.05.21-.44-.46-.3-.19.31.55,0,.28-.28-.14-.07.12-.29-.07-.36-.05.56.42.27.37-.53-.09-.36,0c.34.14.28.19-.06.18.15.05-.15,0,.06.09s.61.14.19.22-.15.11.12.12c0,.06-.59.29-.14.2s.1.1-.07.24.5-.22.29.06-.25.12-.16.22c.28,0,.36.2,0,.16,0,0-.16.06.13.13s.3.14,0,.21.13.07.27.09c-.16.1-.58.28-.16.19s0,.15-.13.28.53-.23.41-.08-.43.48-.08.24.39-.2.2.12,0,.13.17,0-.08.4,0,.38a3.81,3.81,0,0,0,.35-.46c0,.13,0,.65,0,.51s.17-.52.2-.1.07-.4.16-.1.12.14.11-.14.31.52.26.25-.21-.66,0-.4c.1.06.46.48.28.17s-.11-.33.16-.12-.09-.21-.15-.32.34.07.47.07-.52-.36-.26-.31.4.11.5-.16.27-.38.22,0,.05.21.14-.06.11.54.16.26.12-.18.21.08c0-.16-.07-.67.11-.3s.15.13.09-.14.16,0,.31.1-.07-.24-.1-.34.5.34.38.17-.47-.51-.14-.37c.17,0,.6.23.24,0s-.11-.19.17-.15-.46-.21-.21-.21.27,0,.31-.28.1,0,.17.22c0-.17-.06-.67.12-.3s.15.14.09-.14.16,0,.3.1-.07-.23-.1-.34c.11,0,.51.35.39.18s-.47-.51-.15-.37.6.23.24,0-.1-.18.18-.14-.42-.31,0-.2c.12.18,0-.17.07-.29.15.07.32.53.21.09s-.07-.43.17-.14.21.14.07-.12.3.14.35.1-.32-.4-.28-.45.65.25.43.08-.46-.33-.06-.23.1-.06-.1-.17c0-.06.62,0,.16-.12-.11-.33.27.08.18-.07.06-.06-.09-.5.07-.27s.25.37.15,0,0-.22.24,0,.05-.07,0-.24.35.2.4.18-.42-.48-.26-.45.65.25.37.05-.33-.28,0-.2-.11-.12-.21-.2c.22,0,.56,0,.19-.12,0-.36.42.12.24-.2,0-.18-.18-.61.09-.29.14.14.41.42.19.06s.06-.13.25,0-.19-.3-.25-.41.41.12.54.13c-.1-.11-.59-.39-.22-.3s.35,0,0-.13.48,0,.24-.12c.07-.17,0-.5.14-.2s.07-.09.09-.27c.08.1.34.6.24.24,0-.18-.18-.61.08-.28.15.14.41.42.2.06s.05-.14.24,0-.19-.3-.25-.42.41.12.54.14c-.09-.11-.59-.39-.21-.31s.34,0,0-.12.56,0,.19-.13-.3-.14,0-.2-.34-.06-.45-.1c.1-.08.61-.29.41-.27.18-.11-.58.13-.23-.1.18-.22.28.11.23-.19-.18-.09-.23-.4.05-.13s.07,0,0-.22c-.27-.28.21,0,.35,0s-.32-.26-.26-.3.68.12.3,0,0-.14.19-.16c-.13,0-.57-.18-.32-.13.07-.11.54-.13.1-.16s-.1-.28.09,0c-.07,0,0-.35,0-.29s-.49,0-.16-.13c.26.09.52.18.17-.06-.15-.14-.22-.16.1-.12s0-.1-.18-.19c.19,0,.6,0,.19-.11s.07-.13.24-.19c-.12,0-.66,0-.46-.12s.42-.23.38-.26c-.19.05-.62.06-.23,0,0-.12.32-.28-.07-.13s-.17-.2.09-.12c-.37,0-.05-.27,0-.26-.37.1-.23-.3-.38-.08-.28,0,.24-.19.35-.26s-.34,0-.41,0c.11-.11.5-.38.16-.23s-.49.18-.21-.12.06-.18-.17,0,.1-.31.12-.42c-.12.07-.46.54-.37.24s.1-.44-.1-.1,0-.42-.09-.28-.22.64-.25.22-.07-.2-.11-.32c0,.26-.07.48-.17.11-.08-.14-.1,0-.09.24s-.18-.31-.2-.1c-.22-.21,0,.11-.16.19-.08-.24,0-.43-.15-.13,0-.11-.1.52-.15.06s-.08-.26-.12-.28c0,.36-.1.32-.19,0,0,0-.08.09-.06.38s-.22-.2-.32-.28ZM14.17,5.29c.38-.13,0,.37-.08,0Zm3.42.88c.09.19-.41.1-.15-.14Zm-1.29,2h0c.36,0-.09.34-.06,0ZM15.46,9.3c.26.27-.25.14-.07-.1Zm-8,4.42,0,0c.15.22-.5.06,0,0Zm4.21-.42h0c.35,0-.08.33-.06,0ZM10,14.5c.11.27-.36.08-.21-.05.38,0-.07-.08.28-.26C10,14.29,10,14.39,10,14.5Z"/><path id="path1323" class="cls-4" d="M9.87,2.6A9.19,9.19,0,0,1,8.55,4.15C8,4.7,7.18,5.09,6.89,5.76a5.72,5.72,0,0,0-.07,2.38,53,53,0,0,0,.46,5.48,25.13,25.13,0,0,1,.61,4.12,8.66,8.66,0,0,1,0,2.33c-.08.29,0,.89-.33.86-.56,0-.76-.91-1.15-1.36-1.15-1.3-2.56-2.35-3.64-3.7a9,9,0,0,1-1.07-2.5c-.59-1.48-1-3-1.53-4.51A3.77,3.77,0,0,1,.12,7.33,9.77,9.77,0,0,1,.65,5.15,5.19,5.19,0,0,1,1.74,3.29a21.08,21.08,0,0,1,2.43-1.7,10,10,0,0,1,3-1.46A5.22,5.22,0,0,1,8.8,0c.75,0,2.41,0,2.49.43S10.32,1.84,9.87,2.6Z"/><path id="path2220" class="cls-1" d="M6.87,19.5l-.36-.32.24.5-.49-.3.3.41-.46-.17.41.39L6,20l0,0H5.94l.37.2-.38,0,.12,0H5.9l.54.17-.5.18.43,0L6,20.84l.45-.05-.38.32L6.54,21l-.32.4.52-.28-.23.53.22-.21.15-.13-.11.45,0,0,0,.07.35-.5,0,.59.18-.45.09.45.08-.38.15.37v-.48l.27.42-.11-.6.46.42v0h0l-.2-.43.42.25v0h0l-.33-.47.56.17-.4-.33.51,0-.4-.21.41,0-.43-.15.45-.12-.56-.07.51-.29-.1,0,.07,0-.44,0,.37-.3h0l-.16.05-.36.11.33-.47L8,19.64l.21-.48-.4.38L8,19.05l-.27.37,0-.45-.23.48-.11-.53,0,.12,0-.12-.06.37-.15-.36v.12l0-.09v.53l-.33-.43Z"/><path id="path4547" class="cls-5" d="M9.87,2.6A9.19,9.19,0,0,1,8.55,4.15C8,4.7,7.18,5.09,6.89,5.76a7.18,7.18,0,0,0-.2,2.68c.1,1.8.09-2.07.15-.26,0,1.57,0,2.72,0,4.12,0,.78.63,1.66.42,2.42-.09.29,0,.89-.33.86-.56,0-.76-.91-1.15-1.36-1.15-1.3-1.94-2.92-3.43-3.78A6,6,0,0,1,.19,8.86c-.35-.4-.11-1-.07-1.53A9.77,9.77,0,0,1,.65,5.15,5.19,5.19,0,0,1,1.74,3.29a21.08,21.08,0,0,1,2.43-1.7,10,10,0,0,1,3-1.46A5.22,5.22,0,0,1,8.8,0c.75,0,2.41,0,2.49.43S10.32,1.84,9.87,2.6Z"/></g></g></g></svg>