<svg xmlns="http://www.w3.org/2000/svg" xmlns:xlink="http://www.w3.org/1999/xlink" viewBox="0 0 167 237.9"><defs><style>.cls-1{fill:#8c8c8c;}.cls-1,.cls-2,.cls-3{fill-rule:evenodd;}.cls-2{fill:#ff5d01;}.cls-3{fill:url(#linear-gradient);}</style><linearGradient id="linear-gradient" x1="-419.13" y1="679.83" x2="-461.41" y2="768.32" gradientTransform="translate(539.07 -579.63)" gradientUnits="userSpaceOnUse"><stop offset="0" stop-color="#ff1639"/><stop offset="1" stop-color="#ff1639" stop-opacity="0"/></linearGradient></defs><g id="Layer_2" data-name="Layer 2"><g id="Layer_1-2" data-name="Layer 1"><path class="cls-1" d="M118.8,5.9c1.9,2.4,2.9,5.7,4.9,12.2L167,160.4a179.08,179.08,0,0,0-51.8-17.5L87,47.6a3.73,3.73,0,0,0-4.6-2.5,3.89,3.89,0,0,0-2.5,2.5L52,142.8A180.53,180.53,0,0,0,0,160.4L43.7,18.1c2-6.5,3-9.8,4.9-12.2a15.6,15.6,0,0,1,6.5-4.8C58,0,61.4,0,68.2,0H99.3c6.8,0,10.2,0,13.1,1.1A15.94,15.94,0,0,1,118.8,5.9Z"/><path class="cls-2" d="M124,167.1c-7.1,6.1-21.4,10.3-37.8,10.3-20.2,0-37-6.3-41.5-14.7a47,47,0,0,0-2,13.9S41.6,194,53.7,206A11.37,11.37,0,0,1,65,194.6c10.7,0,10.7,9.4,10.7,17v.7a27.65,27.65,0,0,0,17.1,25.6,24.12,24.12,0,0,1-2.3-10.2c0-11,6.5-15.1,14-19.9,6-3.8,12.6-8,17.2-16.4a30.66,30.66,0,0,0,3.7-14.8,29.94,29.94,0,0,0-1.4-9.5Z"/><path class="cls-3" d="M124,167.1c-7.1,6.1-21.4,10.3-37.8,10.3-20.2,0-37-6.3-41.5-14.7a47,47,0,0,0-2,13.9S41.6,194,53.7,206A11.37,11.37,0,0,1,65,194.6c10.7,0,10.7,9.4,10.7,17v.7a27.65,27.65,0,0,0,17.1,25.6,24.12,24.12,0,0,1-2.3-10.2c0-11,6.5-15.1,14-19.9,6-3.8,12.6-8,17.2-16.4a30.66,30.66,0,0,0,3.7-14.8,29.94,29.94,0,0,0-1.4-9.5Z"/></g></g></svg>