<?xml version="1.0" encoding="utf-8"?>
<!-- Generator: Adobe Illustrator 25.0.0, SVG Export Plug-In . SVG Version: 6.00 Build 0)  -->
<svg version="1.1" id="Layer_1" xmlns="http://www.w3.org/2000/svg" xmlns:xlink="http://www.w3.org/1999/xlink" x="0px" y="0px"
	 viewBox="0 0 384.8 502" style="enable-background:new 0 0 384.8 502;" xml:space="preserve">
<style type="text/css">
	.st0{fill:#F04939;}
	.st1{fill:#F37368;}
</style>
<path class="st0" d="M43.5,64.4c0,67.3,41.8,107.6,125.3,128.9l88.5,20.5c79.3,18.4,127.4,63.7,127.4,137.4c0.7,31.9-9.9,63-29,88.5
	c0-73.6-38.2-113.3-129.6-137.4l-87.1-19.8C69,266.9,15.2,229.4,15.2,149.4C15.2,119,25.1,88.5,43.5,64.4"/>
<g>
	<path class="st1" d="M301.2,332.8c37.5,24.1,54.5,58.1,54.5,106.9c-31.9,40.4-86.4,62.3-150.8,62.3C96.6,502,19.4,448.2,3.1,355.4
		h104.1c13.5,42.5,48.9,62.3,97,62.3C261.6,418.5,300.5,387.3,301.2,332.8 M98,164.3C62.6,143,42.1,104.8,43.5,63.7
		C73.9,24.1,126.3,0,190.1,0C301.2,0,365,58.8,381.2,140.9H280.7c-11.3-32.6-38.9-58.1-89.2-58.1C137,83.5,100.1,114.7,98,164.3"/>
</g>
</svg>
