<svg xmlns="http://www.w3.org/2000/svg" xmlns:xlink="http://www.w3.org/1999/xlink" version="1.1" id="Layer_1" x="0px" y="0px" viewBox="0 0 20 20" style="fill: #6CEBDF;enable-background:new 0 0 20 20;" xml:space="preserve">
<g>
    <g>
        <path d="M9.33,15.32h-3.4c-2.93,0-5.36-2.34-5.39-5.27C0.52,7.09,2.91,4.68,5.86,4.68h3.47v0c0,1.02-0.83,1.85-1.85,1.85l-1.55,0     c-1.9,0-3.49,1.5-3.52,3.4c-0.04,1.94,1.53,3.53,3.46,3.53h1.61v-1.61C7.47,10.83,8.3,10,9.33,10h0V15.32z"/>
    </g>
    <g>
        <path d="M10.67,18.78L10.67,18.78l0-5.32h3.41c1.9,0,3.49-1.5,3.52-3.4c0.04-1.94-1.53-3.53-3.46-3.53h-3.47v0     c0-1.02,0.83-1.85,1.85-1.85l1.54,0c2.93,0,5.36,2.34,5.39,5.27c0.03,2.96-2.37,5.37-5.32,5.37h-1.61v1.61     C12.53,17.95,11.7,18.78,10.67,18.78z"/>
    </g>
</g>
</svg>
