<svg id="Layer_1" data-name="Layer 1" xmlns="http://www.w3.org/2000/svg" viewBox="0 0 45.58 33.42"><defs><style>.cls-1{fill:#fff;}.cls-2{fill:#938493;}.cls-3{fill:#7b6c79;}.cls-4{fill:#ffeac8;}.cls-5{fill:#ffc365;}.cls-6{fill:#ffa90f;}.cls-7{fill:#f27182;}.cls-8{fill:#ed5469;}.cls-9{fill:#dd8858;}.cls-10{fill:#cb6c35;}.cls-11{fill:#ffd086;}</style></defs><path class="cls-1" d="M20.52,24.9h-8A12.45,12.45,0,1,1,12.39,0h8.16a4.31,4.31,0,0,1-4.28,4.28H12.49a8.27,8.27,0,0,0-8.3,7.9,8.14,8.14,0,0,0,8,8.3h3.95V16.71a4.31,4.31,0,0,1,4.28-4.29h0V24.9Z"/><path class="cls-1" d="M24.81,33h0V20.59h8a8.26,8.26,0,0,0,8.3-7.9,8.16,8.16,0,0,0-8-8.3H24.81A4.31,4.31,0,0,1,29.09.1h3.62A12.46,12.46,0,0,1,33.53,25H29.09v3.74A4.32,4.32,0,0,1,24.81,33Z"/><path class="cls-2" d="M32.76,12.59l-.09-.09H28.24l-.1.07a28.12,28.12,0,0,0-3.13.32c-.48.25-.78.59-.78,1s.55,1,1.37,1.19a20.59,20.59,0,0,0,4.62-1,13.79,13.79,0,0,0,5,1c2.72,0,3-.94,3-.94L38.3,14c-.24-.67-2.49-1.22-5.54-1.43Z"/><path class="cls-3" d="M24.25,13.86c0-.38.31-.73.82-1-1.66.28-2.76.69-2.93,1.14l0,0h.13a5.21,5.21,0,0,0,3.1,1h.25C24.81,14.81,24.25,14.37,24.25,13.86Z"/><path class="cls-4" d="M30.22,14.49a.26.26,0,0,1-.25-.26V13a.25.25,0,0,1,.25-.25.26.26,0,0,1,.26.25v1.24A.26.26,0,0,1,30.22,14.49Z"/><path class="cls-5" d="M33.62,11.56l-.17-.09a.08.08,0,0,1,0-.12,2.79,2.79,0,0,0,.07-3,5.26,5.26,0,0,1-.69-1.77.09.09,0,0,0-.15-.05,1.87,1.87,0,0,0-.39.94.11.11,0,0,1-.21,0,2.55,2.55,0,0,1-.31-1.64,2,2,0,0,0-1.28-2.43.09.09,0,0,0-.1.12,1.48,1.48,0,0,1-.29,1.85C29.13,6.38,28.27,7,28,8c0,.06-.09.09-.13.05a2.48,2.48,0,0,1-.63-.7.09.09,0,0,0-.16,0,5.88,5.88,0,0,0,.13,3,.09.09,0,0,1-.07.11,2.68,2.68,0,0,1-.48,0,.08.08,0,0,0-.08.11,5,5,0,0,0,.44.83,3.75,3.75,0,0,0,2.51,1.62l.08-.06h1.15l.07.12a3.68,3.68,0,0,0,1.83-.48,2.68,2.68,0,0,0,1-1,.09.09,0,0,0-.05-.12Z"/><path class="cls-6" d="M27.92,12a5.44,5.44,0,0,1-.44-.82.09.09,0,0,1,.08-.12A2,2,0,0,0,28,11a.08.08,0,0,0,.07-.1A6,6,0,0,1,28,8.09a.08.08,0,0,1-.1,0,2.48,2.48,0,0,1-.63-.7.09.09,0,0,0-.16,0,5.88,5.88,0,0,0,.13,3,.09.09,0,0,1-.07.11,2.68,2.68,0,0,1-.48,0,.08.08,0,0,0-.08.11,5,5,0,0,0,.44.83,3.75,3.75,0,0,0,1.69,1.39A3.47,3.47,0,0,1,27.92,12Z"/><path class="cls-6" d="M31.32,4a1.73,1.73,0,0,0-.85-.55.09.09,0,0,0-.1.12,1.48,1.48,0,0,1-.29,1.85c-.9.89-1.73,1.45-2.06,2.45a.1.1,0,0,1,.12,0,2.34,2.34,0,0,0,.63.7.08.08,0,0,0,.13,0c.29-1.1,1.15-1.66,2.1-2.6a1.47,1.47,0,0,0,.49-1.08A2.13,2.13,0,0,0,31.32,4Z"/><path class="cls-7" d="M32.06,12.36,32,12.3a0,0,0,0,1,0-.06,1.51,1.51,0,0,0,0-1.6,3,3,0,0,1-.38-1s-.05-.06-.08,0a1,1,0,0,0-.21.51.06.06,0,0,1-.11,0,1.35,1.35,0,0,1-.17-.88A1.11,1.11,0,0,0,30.36,8a.05.05,0,0,0-.06.07.8.8,0,0,1-.15,1c-.52.5-1,.81-1.14,1.4,0,0-.05.05-.07,0a1.31,1.31,0,0,1-.34-.38,0,0,0,0,0-.09,0,3.19,3.19,0,0,0,.07,1.6,0,0,0,0,1,0,.06l-.26,0a0,0,0,0,0,0,.06,2.7,2.7,0,0,0,.47.75,1.59,1.59,0,0,0,1.2.54h.85a1.59,1.59,0,0,0,1-.38,1.37,1.37,0,0,0,.29-.34,0,0,0,0,0,0-.06Z"/><path class="cls-8" d="M29.58,12.93a2.75,2.75,0,0,1-.46-.75,0,0,0,0,1,0-.06l.26,0a.06.06,0,0,0,0-.06,3.07,3.07,0,0,1-.07-1.6,0,0,0,0,1,.08,0,1.48,1.48,0,0,0,.34.38.05.05,0,0,0,.08,0c.15-.59.62-.9,1.13-1.41l0,0s0,0,0,0A1.11,1.11,0,0,0,30.36,8a.05.05,0,0,0-.06.07.8.8,0,0,1-.15,1c-.52.5-1,.81-1.14,1.4,0,0-.05.05-.07,0a1.31,1.31,0,0,1-.34-.38,0,0,0,0,0-.09,0,3.19,3.19,0,0,0,.07,1.6,0,0,0,0,1,0,.06l-.26,0a0,0,0,0,0,0,.06,2.7,2.7,0,0,0,.47.75,1.6,1.6,0,0,0,1.1.53l-.23-.2Z"/><path class="cls-9" d="M37.67,15.44l-7.45-.23-5.31.23.2,1.59,3.26,2.87v.15h4.69l.33-.25h.23a7,7,0,0,0,4.51-4.12Z"/><path class="cls-10" d="M28.69,19.85a.94.94,0,0,0-.63-.88,4,4,0,0,1-3-3.54l-2.41.1-.3.14a7,7,0,0,0,4.52,4.12h.31l.18.25h1.37v-.2Z"/><path class="cls-11" d="M38.08,14a8.45,8.45,0,0,1-7.33,0,1.3,1.3,0,0,0-1.06,0,9.2,9.2,0,0,1-4.65.75l-.19.18L25,16.44a9.52,9.52,0,0,0,4.64-.78,1.35,1.35,0,0,1,1.08,0,8.6,8.6,0,0,0,7.37,0,5.66,5.66,0,0,0,.28-1.44A.22.22,0,0,0,38.08,14Z"/><path class="cls-5" d="M25,14.81A7.75,7.75,0,0,1,22.36,14a.22.22,0,0,0-.33.21,6.13,6.13,0,0,0,.28,1.44,7.8,7.8,0,0,0,2.94.79A3.61,3.61,0,0,1,25,14.81Z"/><path class="cls-11" d="M30.62,18.67a.93.93,0,0,0-.8,0c-.66.31-1.31.57-1.95.8l.5.43v.25l.32.24h4.4a.3.3,0,0,0,.31-.3.32.32,0,0,1,.19-.29,22.57,22.57,0,0,1-3-1.13Z"/><path class="cls-5" d="M28.69,19.85a.91.91,0,0,0-.23-.6c-.54.21-1.08.39-1.61.55a.3.3,0,0,1,.19.29.3.3,0,0,0,.31.3h1.34Z"/></svg>