<?xml version="1.0" encoding="utf-8"?>
<!-- Generator: Adobe Illustrator 25.0.0, SVG Export Plug-In . SVG Version: 6.00 Build 0)  -->
<svg version="1.1" id="Layer_1" xmlns="http://www.w3.org/2000/svg" xmlns:xlink="http://www.w3.org/1999/xlink" x="0px" y="0px"
	 viewBox="0 0 237.8 26.6" style="enable-background:new 0 0 237.8 26.6;" xml:space="preserve">
<style type="text/css">
	.st0{fill:#5CEBDF;}
</style>
<g>
	<g>
		<path class="st0" d="M15.4,20.5h-6c-5.1,0-9.4-4.1-9.4-9.2c0-5.2,4.1-9.4,9.3-9.4h6.1l0,0c0,1.8-1.5,3.2-3.2,3.2H9.4
			c-3.3,0-6.1,2.6-6.2,5.9c-0.1,3.4,2.7,6.2,6.1,6.2h2.8v-2.8c0-1.8,1.5-3.2,3.2-3.2l0,0v9.3H15.4z"/>
		<path class="st0" d="M18.6,26.6L18.6,26.6v-9.3h6c3.3,0,6.1-2.6,6.2-5.9c0.1-3.4-2.7-6.2-6.1-6.2h-6.1l0,0c0-1.8,1.5-3.2,3.2-3.2
			h2.7c5.1,0,9.4,4.1,9.4,9.2c0,5.2-4.1,9.4-9.3,9.4h-2.8v2.8C21.8,25.1,20.4,26.6,18.6,26.6z"/>
	</g>
	<g>
		<path class="st0" d="M52.4,10.2h10.5c0.1,0.2,0.1,0.5,0.1,0.9c0,0.3,0.1,0.7,0.1,1c0,1.4-0.2,2.7-0.6,3.9c-0.4,1.2-1.1,2.3-2,3.3
			c-1,1-2.1,1.8-3.4,2.4c-1.3,0.6-2.9,0.8-4.6,0.8c-1.6,0-3-0.3-4.4-0.8c-1.4-0.6-2.6-1.3-3.6-2.3s-1.8-2.2-2.4-3.6
			c-0.6-1.4-0.9-2.9-0.9-4.5s0.3-3.1,0.9-4.5c0.6-1.4,1.4-2.6,2.4-3.5s2.2-1.8,3.6-2.3c1.4-0.7,2.8-1,4.4-1c1.7,0,3.3,0.3,4.7,0.9
			s2.5,1.4,3.5,2.5l-2.8,2.7c-0.7-0.7-1.5-1.3-2.3-1.7c-0.9-0.4-1.9-0.6-3.1-0.6c-1,0-1.9,0.2-2.8,0.5c-0.9,0.3-1.6,0.8-2.3,1.5
			c-0.7,0.6-1.2,1.4-1.6,2.3c-0.4,0.9-0.6,1.9-0.6,3s0.2,2.1,0.6,3c0.4,0.9,0.9,1.7,1.6,2.3c0.7,0.6,1.4,1.1,2.3,1.5
			c0.9,0.3,1.8,0.5,2.8,0.5c1.1,0,2.1-0.2,2.9-0.5c0.8-0.3,1.5-0.8,2-1.3c0.4-0.4,0.7-0.8,1-1.4c0.3-0.5,0.5-1.2,0.7-1.8h-6.7
			C52.4,13.4,52.4,10.2,52.4,10.2z"/>
		<path class="st0" d="M74.8,20.4h-0.2c-0.5,0.6-1,1-1.7,1.4c-0.6,0.4-1.5,0.6-2.5,0.6c-0.8,0-1.5-0.1-2.1-0.4
			c-0.7-0.2-1.3-0.6-1.8-1s-0.9-1-1.2-1.6c-0.3-0.6-0.4-1.3-0.4-2c0-0.8,0.1-1.4,0.4-2.1c0.3-0.6,0.7-1.1,1.3-1.6
			c0.5-0.4,1.2-0.8,1.9-1c0.7-0.2,1.5-0.3,2.4-0.3c1,0,1.7,0.1,2.4,0.2c0.6,0.2,1.1,0.3,1.5,0.5v-0.4c0-0.8-0.3-1.4-0.9-1.9
			S72.5,10,71.6,10c-1.4,0-2.5,0.6-3.4,1.7l-2.8-1.9c1.6-2,3.7-2.9,6.4-2.9c2.3,0,4,0.5,5.2,1.6s1.8,2.7,1.8,4.7V22h-3.9v-1.6H74.8z
			 M74.8,16c-0.5-0.2-0.9-0.4-1.4-0.5s-1-0.2-1.6-0.2c-0.9,0-1.7,0.2-2.2,0.6s-0.8,0.9-0.8,1.5s0.2,1.1,0.7,1.4
			c0.5,0.4,1.1,0.5,1.7,0.5c0.5,0,1-0.1,1.4-0.3c0.4-0.2,0.8-0.4,1.1-0.7c0.3-0.3,0.5-0.7,0.7-1.1C74.7,16.8,74.8,16.4,74.8,16z"/>
		<path class="st0" d="M79.4,7.2h4.5l3.7,9.3h0.2l3.7-9.3h4.4l-6.3,14.7h-3.9L79.4,7.2z"/>
		<path class="st0" d="M99.5,5.3c-0.3,0-0.7-0.1-1-0.2s-0.6-0.3-0.8-0.5c-0.2-0.2-0.4-0.5-0.5-0.8S97,3.2,97,2.8s0.1-0.7,0.2-1
			s0.3-0.6,0.5-0.8s0.5-0.4,0.8-0.5s0.6-0.2,1-0.2c0.7,0,1.3,0.2,1.8,0.7s0.7,1.1,0.7,1.8s-0.2,1.3-0.7,1.8
			C100.8,5,100.2,5.3,99.5,5.3z M97.6,21.9V7.2h3.9v14.7H97.6z"/>
		<path class="st0" d="M108.5,9.2h0.2c0.5-0.7,1.1-1.3,1.9-1.8s1.7-0.6,2.7-0.6c0.9,0,1.7,0.1,2.4,0.4c0.7,0.3,1.3,0.7,1.7,1.3
			c0.4,0.5,0.8,1.2,1,2s0.3,1.6,0.3,2.6V22h-3.9v-8.4c0-1.1-0.2-1.8-0.7-2.4c-0.5-0.5-1.2-0.8-2.1-0.8c-0.5,0-1,0.1-1.4,0.3
			s-0.8,0.5-1,0.9c-0.3,0.4-0.5,0.8-0.7,1.4c-0.1,0.5-0.2,1.1-0.2,1.7v7.2h-3.9V7.2h3.7V9.2z"/>
		<path class="st0" d="M122.5,21.9V0.5h7.5c1,0,2,0.2,2.9,0.5s1.7,0.8,2.3,1.4s1.2,1.3,1.6,2.1c0.4,0.8,0.6,1.7,0.6,2.7
			s-0.2,1.9-0.6,2.8c-0.4,0.8-0.9,1.5-1.6,2.1c-0.7,0.6-1.4,1.1-2.3,1.4c-0.9,0.3-1.8,0.5-2.9,0.5h-3.5v7.9H122.5z M130.1,10.2
			c1.1,0,1.9-0.3,2.4-0.9c0.5-0.6,0.8-1.3,0.8-2.1c0-0.4-0.1-0.7-0.2-1.1c-0.1-0.4-0.3-0.7-0.6-0.9c-0.3-0.3-0.6-0.5-1-0.6
			c-0.4-0.2-0.9-0.2-1.4-0.2h-3.6v5.9h3.6V10.2z"/>
		<path class="st0" d="M153,18.4c-0.7,1.2-1.6,2.2-2.7,2.9c-1.1,0.7-2.6,1.1-4.2,1.1c-1.1,0-2.2-0.2-3.1-0.6
			c-0.9-0.4-1.8-0.9-2.5-1.6s-1.2-1.5-1.6-2.5c-0.4-0.9-0.6-2-0.6-3.1s0.2-2.1,0.6-3c0.4-0.9,0.9-1.8,1.6-2.5
			c0.7-0.7,1.5-1.3,2.4-1.7c0.9-0.4,2-0.6,3.1-0.6c1.2,0,2.2,0.2,3.1,0.6c0.9,0.4,1.7,0.9,2.3,1.6c0.6,0.7,1.1,1.5,1.4,2.4
			c0.3,0.9,0.5,2,0.5,3.1c0,0.1,0,0.3,0,0.4c0,0.1,0,0.2,0,0.3s0,0.2,0,0.3h-11.1c0.1,0.6,0.2,1.1,0.5,1.5c0.2,0.4,0.6,0.8,0.9,1.1
			c0.4,0.3,0.8,0.5,1.2,0.6s0.9,0.2,1.3,0.2c0.9,0,1.6-0.2,2.2-0.6c0.6-0.4,1.1-0.9,1.4-1.5L153,18.4z M149.4,12.7
			c0-0.3-0.1-0.5-0.3-0.9c-0.1-0.3-0.4-0.6-0.7-0.9c-0.3-0.3-0.6-0.5-1.1-0.7c-0.4-0.2-0.9-0.3-1.5-0.3c-0.8,0-1.6,0.2-2.2,0.7
			c-0.6,0.5-1.1,1.1-1.3,2L149.4,12.7L149.4,12.7z"/>
		<path class="st0" d="M155.6,7.2h3.7v2h0.2c0.2-0.4,0.4-0.7,0.7-1s0.6-0.6,1-0.8c0.4-0.2,0.8-0.4,1.2-0.5s0.9-0.2,1.3-0.2
			c0.5,0,1,0.1,1.3,0.2c0.4,0.1,0.7,0.3,0.9,0.4l-1,3.5c-0.2-0.1-0.5-0.2-0.8-0.3s-0.6-0.1-1.1-0.1s-1,0.1-1.5,0.3
			c-0.4,0.2-0.8,0.5-1.1,0.9s-0.5,0.8-0.7,1.3s-0.3,1.1-0.3,1.7v7.2h-3.9V7.2H155.6z"/>
		<path class="st0" d="M181.1,18.4c-0.7,1.2-1.6,2.2-2.7,2.9c-1.1,0.7-2.6,1.1-4.2,1.1c-1.1,0-2.2-0.2-3.1-0.6
			c-0.9-0.4-1.8-0.9-2.5-1.6s-1.2-1.5-1.6-2.5c-0.4-0.9-0.6-2-0.6-3.1s0.2-2.1,0.6-3c0.4-0.9,0.9-1.8,1.6-2.5
			c0.7-0.7,1.5-1.3,2.4-1.7c0.9-0.4,2-0.6,3.1-0.6c1.2,0,2.2,0.2,3.1,0.6c0.9,0.4,1.7,0.9,2.3,1.6c0.6,0.7,1.1,1.5,1.4,2.4
			c0.3,0.9,0.5,2,0.5,3.1c0,0.1,0,0.3,0,0.4c0,0.1,0,0.2,0,0.3s0,0.2,0,0.3h-11.1c0.1,0.6,0.2,1.1,0.5,1.5c0.2,0.4,0.6,0.8,0.9,1.1
			c0.4,0.3,0.8,0.5,1.2,0.6s0.9,0.2,1.3,0.2c0.9,0,1.6-0.2,2.2-0.6c0.6-0.4,1.1-0.9,1.4-1.5L181.1,18.4z M177.6,12.7
			c0-0.3-0.1-0.5-0.3-0.9s-0.4-0.6-0.7-0.9c-0.3-0.3-0.6-0.5-1.1-0.7c-0.4-0.2-0.9-0.3-1.5-0.3c-0.8,0-1.6,0.2-2.2,0.7
			c-0.6,0.5-1.1,1.1-1.3,2L177.6,12.7L177.6,12.7z"/>
		<path class="st0" d="M185.7,5.3c-0.3,0-0.7-0.1-1-0.2s-0.6-0.3-0.8-0.5s-0.4-0.5-0.5-0.8s-0.2-0.6-0.2-1s0.1-0.7,0.2-1
			c0.1-0.3,0.3-0.6,0.5-0.8s0.5-0.4,0.8-0.5s0.6-0.2,1-0.2c0.7,0,1.3,0.2,1.8,0.7s0.7,1.1,0.7,1.8S188,4,187.5,4.5
			S186.4,5.3,185.7,5.3z M183.8,21.9V7.2h3.9v14.7H183.8z"/>
		<path class="st0" d="M191.1,7.2h3.7v2h0.2c0.2-0.4,0.4-0.7,0.7-1s0.6-0.6,1-0.8c0.4-0.2,0.8-0.4,1.2-0.5s0.9-0.2,1.3-0.2
			c0.5,0,1,0.1,1.3,0.2c0.4,0.1,0.7,0.3,0.9,0.4l-1,3.5c-0.2-0.1-0.5-0.2-0.8-0.3s-0.6-0.1-1.1-0.1s-1,0.1-1.5,0.3
			c-0.4,0.2-0.8,0.5-1.1,0.9s-0.5,0.8-0.7,1.3s-0.3,1.1-0.3,1.7v7.2H191V7.2H191.1z"/>
		<path class="st0" d="M212.1,20.4h-0.2c-0.5,0.6-1,1-1.7,1.4c-0.6,0.4-1.5,0.6-2.5,0.6c-0.8,0-1.5-0.1-2.1-0.4
			c-0.7-0.2-1.3-0.6-1.8-1s-0.9-1-1.2-1.6s-0.4-1.3-0.4-2c0-0.8,0.1-1.4,0.4-2.1c0.3-0.6,0.7-1.1,1.3-1.6c0.5-0.4,1.2-0.8,1.9-1
			s1.5-0.3,2.4-0.3c1,0,1.7,0.1,2.4,0.2c0.6,0.2,1.1,0.3,1.5,0.5v-0.4c0-0.8-0.3-1.4-0.9-1.9c-0.6-0.5-1.4-0.8-2.3-0.8
			c-1.4,0-2.5,0.6-3.4,1.7l-2.8-1.9c1.6-2,3.7-2.9,6.4-2.9c2.3,0,4,0.5,5.2,1.6s1.8,2.7,1.8,4.7V22h-3.9L212.1,20.4L212.1,20.4z
			 M212.1,16c-0.5-0.2-0.9-0.4-1.4-0.5s-1-0.2-1.6-0.2c-0.9,0-1.7,0.2-2.2,0.6s-0.8,0.9-0.8,1.5s0.2,1.1,0.7,1.4
			c0.5,0.4,1.1,0.5,1.7,0.5c0.5,0,1-0.1,1.4-0.3c0.4-0.2,0.8-0.4,1.1-0.7c0.3-0.3,0.5-0.7,0.7-1.1C212,16.8,212.1,16.4,212.1,16z"/>
		<path class="st0" d="M221.2,20.5c0,0.4-0.1,0.8-0.4,1.1c-0.3,0.3-0.7,0.5-1.1,0.5c-0.4,0-0.8-0.1-1.1-0.5
			c-0.3-0.3-0.5-0.7-0.5-1.1s0.1-0.8,0.5-1.1c0.3-0.3,0.7-0.4,1.1-0.4c0.4,0,0.8,0.1,1.1,0.4C221,19.7,221.2,20.1,221.2,20.5z"/>
		<path class="st0" d="M226,7.1c0,0.4-0.1,0.8-0.4,1c-0.3,0.3-0.6,0.4-1,0.4s-0.8-0.1-1-0.4c-0.3-0.3-0.4-0.6-0.4-1s0.1-0.8,0.4-1
			c0.3-0.3,0.6-0.4,1-0.4s0.8,0.1,1,0.4C225.8,6.3,226,6.7,226,7.1z M225.5,10.9v11h-2.1v-11H225.5z"/>
		<path class="st0" d="M228,10.9h2v1.5h0.1c0.3-0.5,0.8-1,1.5-1.3c0.7-0.4,1.3-0.5,2-0.5c1.4,0,2.4,0.4,3.1,1.2
			c0.7,0.8,1.1,1.9,1.1,3.3V22h-2.1v-6.8c0-1.8-1-2.7-2.7-2.7c-0.8,0-1.5,0.3-2.1,1s-0.8,1.5-0.8,2.4V22H228V10.9z"/>
	</g>
</g>
</svg>
